<?xml version="1.0" encoding="UTF-8"?>
<svg id="Layer_2" data-name="Layer 2" xmlns="http://www.w3.org/2000/svg" viewBox="0 0 1392.57 256.94">
  <defs>
    <style>
      .cls-1 {
        fill: #c5edab;
        stroke-width: 0px;
      }
    </style>
  </defs>
  <g id="Layer_1-2" data-name="Layer 1">
    <path class="cls-1" d="M9,250.59c101.72,12.89,207.54,8.18,302.68-32.98,55.2-23.88,101.14-60.26,145.17-100.49,15.12-13.81,30.94-26.78,45.35-41.37,18.98-19.22,35-41.16,54.01-60.27-5.01-2.92-10.03-5.84-15.04-8.76-.85,5.47-3.13,10.81-4.94,16.01-3.18,9.14-6.36,18.27-9.22,27.51-6.67,21.54-12.4,44.29-12.16,66.99.22,20.97,6.86,42.03,25.46,53.65,20.27,12.66,45.35,14.6,68.57,12.13,31.14-3.32,61.37-12.65,91.08-22.14,36.85-11.77,73.8-23.45,110.41-35.96,63.83-21.82,126.21-47.42,188.79-72.55,16.79-6.74,33.76-14.42,51.31-19.03,1.16-.3,2.32-.54,3.48-.81,2.34-.55-1.74-.19.19,0,1.76.17-1.18-.24-1.19-.26,2.01,2.77-2.32-11.54-4.89-11.39-1.37.08,1.95-1.59.49-.71-.69.42-1.35,1.32-1.96,1.86-7.26,6.55-16.18,12.09-24.41,17.86-27.96,19.62-54.94,40.12-81.57,61.5-24.28,19.5-50.88,36.08-74.57,56.32-12.54,10.72-32.13,30.54-15.83,46.7,11.11,11.02,27.62,8.29,41.07,4.03,20.79-6.6,40.44-17.18,59.62-27.4,26.36-14.05,52.32-28.83,78.56-43.08,30.59-16.61,61.5-32.66,93.15-47.15,30.35-13.9,61.05-26.34,93.67-33.8,29.79-6.81,60.23-10.6,90.73-12.34,21.12-1.21,42.55-1.81,63.66.05,1.4.12,2.8.26,4.2.42,2.52.29-1.85-.32.45.05.6.1,1.21.17,1.81.3.77.16,1.62.45,2.39.52,2.38.23-1.08-.7-.2-.14,9.79,6.26,18.82-9.31,9.08-15.54-4.2-2.69-10.39-2.87-15.13-3.37-8.12-.86-16.3-1.12-24.46-1.25-26.05-.41-52.17,1.08-78.04,4.06-30.83,3.55-61.62,9.04-91.19,18.57-32.36,10.44-63.62,25.28-94.1,40.23-55.26,27.1-107.81,59.25-162.79,86.85-14.78,7.42-32.95,16.79-48.39,18.64-.9.11-4.85.28-7.02,0,2.57.33-1.2-.43-1.91-.67,2.7.94-1.86-1.19-1.71-1.09-1.86-1.31-.74-.46-1.89-2.2.69,1.05.34-.41.17.08.72-2.06,2.07-4.83,4.28-7.56,7.69-9.48,18.15-17.05,27.84-24.32,12.52-9.39,25.32-18.4,37.88-27.74,28.01-20.83,54.5-43.44,83-63.66,10.72-7.6,21.57-15.02,32.2-22.75,5.55-4.03,13.15-8.36,16.66-14.54,4.57-8.05-2.22-15.49-10.42-15.07-5.55.28-11.11,2.32-16.31,4.08-20.63,6.99-40.77,15.56-60.95,23.73-30.26,12.25-60.53,24.48-91.01,36.19-69.19,26.57-139.83,50.13-210.81,71.46-27.04,8.12-55.32,16.26-83.8,15.95-18.46-.2-42.68-4.76-52.19-22.64s-5.71-39.72-1.97-57.82c4.17-20.14,10.86-39.57,17.59-58.96,1.69-4.88,3.8-9.9,4.6-15.04,1.3-8.34-8.16-15.67-15.04-8.76-16.01,16.09-29.62,34.55-45.17,51.09s-31.84,30.38-48.26,45.16c-17.36,15.61-34.33,31.6-52.63,46.12-57.06,45.28-125.58,74.53-197.94,86.66-62.87,10.54-127.42,8.79-190.47.8C4.14,231.97.05,237.17,0,241.59c-.06,5.37,4.2,8.39,9,9h0Z"/>
  </g>
</svg>